<mxfile host="app.diagrams.net" modified="2020-12-04T05:55:49.220Z" agent="5.0 (Windows NT 10.0; Win64; x64) AppleWebKit/537.36 (KHTML, like Gecko) Chrome/86.0.4240.198 Safari/537.36" etag="x-1yIp_EBThAKuCBlyMY" version="13.10.4" type="github">
  <diagram id="s71LyRP01pbx-iKrLPZ0" name="第 1 页">
    <mxGraphModel dx="2858" dy="1089" grid="1" gridSize="10" guides="1" tooltips="1" connect="1" arrows="1" fold="1" page="1" pageScale="1" pageWidth="827" pageHeight="1169" math="0" shadow="0">
      <root>
        <mxCell id="0" />
        <mxCell id="1" parent="0" />
        <mxCell id="5K5XhttufqZDgXMR2xSY-2" style="edgeStyle=none;rounded=0;orthogonalLoop=1;jettySize=auto;html=1;exitX=1;exitY=1;exitDx=0;exitDy=0;entryX=0;entryY=0;entryDx=0;entryDy=0;" parent="1" source="5K5XhttufqZDgXMR2xSY-5" target="5K5XhttufqZDgXMR2xSY-9" edge="1">
          <mxGeometry relative="1" as="geometry" />
        </mxCell>
        <mxCell id="5K5XhttufqZDgXMR2xSY-3" style="edgeStyle=none;rounded=0;orthogonalLoop=1;jettySize=auto;html=1;exitX=1;exitY=0;exitDx=0;exitDy=0;entryX=0;entryY=1;entryDx=0;entryDy=0;" parent="1" source="5K5XhttufqZDgXMR2xSY-5" target="5K5XhttufqZDgXMR2xSY-22" edge="1">
          <mxGeometry relative="1" as="geometry" />
        </mxCell>
        <mxCell id="5K5XhttufqZDgXMR2xSY-4" value="" style="edgeStyle=none;rounded=0;orthogonalLoop=1;jettySize=auto;html=1;" parent="1" source="5K5XhttufqZDgXMR2xSY-5" target="5K5XhttufqZDgXMR2xSY-7" edge="1">
          <mxGeometry relative="1" as="geometry" />
        </mxCell>
        <mxCell id="5K5XhttufqZDgXMR2xSY-5" value="天车&lt;br&gt;派工" style="ellipse;whiteSpace=wrap;html=1;" parent="1" vertex="1">
          <mxGeometry x="-340" y="1040" width="120" height="80" as="geometry" />
        </mxCell>
        <mxCell id="5K5XhttufqZDgXMR2xSY-49" value="" style="edgeStyle=none;rounded=0;orthogonalLoop=1;jettySize=auto;html=1;" parent="1" source="5K5XhttufqZDgXMR2xSY-7" target="5K5XhttufqZDgXMR2xSY-19" edge="1">
          <mxGeometry relative="1" as="geometry" />
        </mxCell>
        <mxCell id="5K5XhttufqZDgXMR2xSY-7" value="PUSH" style="ellipse;whiteSpace=wrap;html=1;" parent="1" vertex="1">
          <mxGeometry x="-180" y="1035" width="120" height="80" as="geometry" />
        </mxCell>
        <mxCell id="5K5XhttufqZDgXMR2xSY-8" style="edgeStyle=none;rounded=0;orthogonalLoop=1;jettySize=auto;html=1;entryX=0.13;entryY=0.77;entryDx=0;entryDy=0;entryPerimeter=0;" parent="1" source="5K5XhttufqZDgXMR2xSY-9" target="5K5XhttufqZDgXMR2xSY-38" edge="1">
          <mxGeometry relative="1" as="geometry">
            <mxPoint x="21.288763294977343" y="1258.2459602113795" as="targetPoint" />
          </mxGeometry>
        </mxCell>
        <mxCell id="5K5XhttufqZDgXMR2xSY-9" value="PULL" style="ellipse;whiteSpace=wrap;html=1;" parent="1" vertex="1">
          <mxGeometry x="-90" y="1195" width="120" height="80" as="geometry" />
        </mxCell>
        <mxCell id="5K5XhttufqZDgXMR2xSY-10" style="edgeStyle=none;rounded=0;orthogonalLoop=1;jettySize=auto;html=1;entryX=0;entryY=0.5;entryDx=0;entryDy=0;entryPerimeter=0;" parent="1" source="5K5XhttufqZDgXMR2xSY-11" target="5K5XhttufqZDgXMR2xSY-12" edge="1">
          <mxGeometry relative="1" as="geometry" />
        </mxCell>
        <mxCell id="5K5XhttufqZDgXMR2xSY-11" value="派工排程" style="ellipse;whiteSpace=wrap;html=1;" parent="1" vertex="1">
          <mxGeometry x="70" y="520" width="120" height="80" as="geometry" />
        </mxCell>
        <mxCell id="5K5XhttufqZDgXMR2xSY-12" value="机台作业计划&amp;nbsp;" style="shape=cylinder3;whiteSpace=wrap;html=1;boundedLbl=1;backgroundOutline=1;size=15;" parent="1" vertex="1">
          <mxGeometry x="520" y="520" width="60" height="80" as="geometry" />
        </mxCell>
        <mxCell id="5K5XhttufqZDgXMR2xSY-13" style="edgeStyle=none;rounded=0;orthogonalLoop=1;jettySize=auto;html=1;" parent="1" source="5K5XhttufqZDgXMR2xSY-14" edge="1">
          <mxGeometry relative="1" as="geometry">
            <mxPoint x="490" y="760" as="targetPoint" />
          </mxGeometry>
        </mxCell>
        <mxCell id="5K5XhttufqZDgXMR2xSY-14" value="前台派工" style="ellipse;whiteSpace=wrap;html=1;" parent="1" vertex="1">
          <mxGeometry x="70" y="720" width="120" height="80" as="geometry" />
        </mxCell>
        <mxCell id="5K5XhttufqZDgXMR2xSY-50" value="参照排程" style="edgeStyle=none;rounded=0;orthogonalLoop=1;jettySize=auto;html=1;exitX=1;exitY=0.5;exitDx=0;exitDy=0;entryX=0.072;entryY=0.358;entryDx=0;entryDy=0;entryPerimeter=0;" parent="1" source="5K5XhttufqZDgXMR2xSY-19" target="5K5XhttufqZDgXMR2xSY-38" edge="1">
          <mxGeometry relative="1" as="geometry" />
        </mxCell>
        <mxCell id="5K5XhttufqZDgXMR2xSY-19" value="派到机台所在区域OHB&amp;nbsp;" style="ellipse;whiteSpace=wrap;html=1;" parent="1" vertex="1">
          <mxGeometry y="1040" width="120" height="80" as="geometry" />
        </mxCell>
        <mxCell id="5K5XhttufqZDgXMR2xSY-20" style="edgeStyle=none;rounded=0;orthogonalLoop=1;jettySize=auto;html=1;exitX=1;exitY=0;exitDx=0;exitDy=0;entryX=0;entryY=0.5;entryDx=0;entryDy=0;" parent="1" source="5K5XhttufqZDgXMR2xSY-22" target="5K5XhttufqZDgXMR2xSY-24" edge="1">
          <mxGeometry relative="1" as="geometry" />
        </mxCell>
        <mxCell id="5K5XhttufqZDgXMR2xSY-21" style="edgeStyle=none;rounded=0;orthogonalLoop=1;jettySize=auto;html=1;entryX=0;entryY=0.5;entryDx=0;entryDy=0;exitX=1;exitY=1;exitDx=0;exitDy=0;" parent="1" source="5K5XhttufqZDgXMR2xSY-22" target="5K5XhttufqZDgXMR2xSY-26" edge="1">
          <mxGeometry relative="1" as="geometry" />
        </mxCell>
        <mxCell id="5K5XhttufqZDgXMR2xSY-22" value="OHB整理" style="ellipse;whiteSpace=wrap;html=1;" parent="1" vertex="1">
          <mxGeometry x="-170" y="860" width="120" height="80" as="geometry" />
        </mxCell>
        <mxCell id="5K5XhttufqZDgXMR2xSY-24" value="清理OHB到STOCK或者其他区域OHB" style="ellipse;whiteSpace=wrap;html=1;" parent="1" vertex="1">
          <mxGeometry x="70" y="800" width="120" height="80" as="geometry" />
        </mxCell>
        <mxCell id="5K5XhttufqZDgXMR2xSY-26" value="预派送LOT派到机台OHB" style="ellipse;whiteSpace=wrap;html=1;" parent="1" vertex="1">
          <mxGeometry x="10" y="930" width="120" height="80" as="geometry" />
        </mxCell>
        <mxCell id="5K5XhttufqZDgXMR2xSY-30" style="edgeStyle=none;rounded=0;orthogonalLoop=1;jettySize=auto;html=1;entryX=0.5;entryY=1;entryDx=0;entryDy=0;entryPerimeter=0;" parent="1" target="5K5XhttufqZDgXMR2xSY-12" edge="1">
          <mxGeometry relative="1" as="geometry">
            <mxPoint x="550" y="720" as="sourcePoint" />
          </mxGeometry>
        </mxCell>
        <mxCell id="5K5XhttufqZDgXMR2xSY-33" style="edgeStyle=none;rounded=0;orthogonalLoop=1;jettySize=auto;html=1;entryX=0;entryY=0.5;entryDx=0;entryDy=0;" parent="1" source="5K5XhttufqZDgXMR2xSY-35" target="5K5XhttufqZDgXMR2xSY-11" edge="1">
          <mxGeometry relative="1" as="geometry" />
        </mxCell>
        <mxCell id="5K5XhttufqZDgXMR2xSY-34" style="edgeStyle=none;rounded=0;orthogonalLoop=1;jettySize=auto;html=1;exitX=0.8;exitY=0.8;exitDx=0;exitDy=0;exitPerimeter=0;" parent="1" source="5K5XhttufqZDgXMR2xSY-35" target="5K5XhttufqZDgXMR2xSY-14" edge="1">
          <mxGeometry relative="1" as="geometry" />
        </mxCell>
        <mxCell id="5K5XhttufqZDgXMR2xSY-35" value="派工系统" style="ellipse;shape=cloud;whiteSpace=wrap;html=1;" parent="1" vertex="1">
          <mxGeometry x="-260" y="520" width="120" height="80" as="geometry" />
        </mxCell>
        <mxCell id="5K5XhttufqZDgXMR2xSY-38" value="" style="ellipse;shape=cloud;whiteSpace=wrap;html=1;" parent="1" vertex="1">
          <mxGeometry x="200" y="930" width="440" height="380" as="geometry" />
        </mxCell>
        <mxCell id="5K5XhttufqZDgXMR2xSY-57" value="" style="edgeStyle=none;rounded=0;orthogonalLoop=1;jettySize=auto;html=1;" parent="1" source="5K5XhttufqZDgXMR2xSY-41" target="5K5XhttufqZDgXMR2xSY-56" edge="1">
          <mxGeometry relative="1" as="geometry" />
        </mxCell>
        <mxCell id="5K5XhttufqZDgXMR2xSY-41" value="派工排程系统" style="ellipse;whiteSpace=wrap;html=1;" parent="1" vertex="1">
          <mxGeometry x="360" y="1020" width="120" height="80" as="geometry" />
        </mxCell>
        <mxCell id="5K5XhttufqZDgXMR2xSY-43" style="rounded=0;orthogonalLoop=1;jettySize=auto;html=1;entryX=0.88;entryY=0.25;entryDx=0;entryDy=0;entryPerimeter=0;" parent="1" source="5K5XhttufqZDgXMR2xSY-42" target="5K5XhttufqZDgXMR2xSY-38" edge="1">
          <mxGeometry relative="1" as="geometry" />
        </mxCell>
        <mxCell id="5K5XhttufqZDgXMR2xSY-42" value="前台派工" style="ellipse;whiteSpace=wrap;html=1;" parent="1" vertex="1">
          <mxGeometry x="810" y="770" width="140" height="80" as="geometry" />
        </mxCell>
        <mxCell id="5K5XhttufqZDgXMR2xSY-53" value="EAP" style="ellipse;shape=cloud;whiteSpace=wrap;html=1;" parent="1" vertex="1">
          <mxGeometry x="760" y="1200" width="210" height="180" as="geometry" />
        </mxCell>
        <mxCell id="5K5XhttufqZDgXMR2xSY-55" value="OHT" style="ellipse;shape=cloud;whiteSpace=wrap;html=1;" parent="1" vertex="1">
          <mxGeometry x="140" y="1390" width="120" height="80" as="geometry" />
        </mxCell>
        <mxCell id="5K5XhttufqZDgXMR2xSY-59" style="edgeStyle=none;rounded=0;orthogonalLoop=1;jettySize=auto;html=1;" parent="1" source="5K5XhttufqZDgXMR2xSY-56" target="5K5XhttufqZDgXMR2xSY-55" edge="1">
          <mxGeometry relative="1" as="geometry" />
        </mxCell>
        <mxCell id="5K5XhttufqZDgXMR2xSY-56" value="psb,mcs模块" style="ellipse;whiteSpace=wrap;html=1;" parent="1" vertex="1">
          <mxGeometry x="294" y="1160" width="120" height="80" as="geometry" />
        </mxCell>
        <mxCell id="Hv2xg3n0OJKgLfnHofaq-1" value="" style="ellipse;whiteSpace=wrap;html=1;" vertex="1" parent="1">
          <mxGeometry x="-90" y="1750" width="120" height="80" as="geometry" />
        </mxCell>
      </root>
    </mxGraphModel>
  </diagram>
</mxfile>
